<?xml version="1.0" encoding="iso-8859-1"?>
<!-- Uploaded to: SVG Repo, www.svgrepo.com, Generator: SVG Repo Mixer Tools -->
<svg version="1.1" id="Layer_1" xmlns="http://www.w3.org/2000/svg" xmlns:xlink="http://www.w3.org/1999/xlink" 
	 viewBox="0 0 512 512" xml:space="preserve">
<rect x="10.199" y="180.261" style="fill:#E8E8E8;" width="328.231" height="318.582"/>
<polygon style="fill:#F07057;" points="175.251,13.158 10.199,180.258 338.428,180.258 "/>
<rect x="113.701" y="322.07" style="fill:#84B3D2;" width="121.218" height="176.773"/>
<rect x="338.43" y="270.105" style="fill:#E8E8E8;" width="163.371" height="228.738"/>
<rect x="338.43" y="180.261" style="fill:#F07057;" width="163.371" height="89.845"/>
<path d="M43.323,336.489c-5.632,0-10.199,4.567-10.199,10.199v9.068c0,5.632,4.567,10.199,10.199,10.199s10.199-4.567,10.199-10.199
	v-9.068C53.522,341.056,48.955,336.489,43.323,336.489z"/>
<path d="M43.323,382.84c-5.632,0-10.199,4.567-10.199,10.199v74.565c0,5.632,4.567,10.199,10.199,10.199s10.199-4.567,10.199-10.199
	V393.04C53.522,387.408,48.955,382.84,43.323,382.84z"/>
<path d="M512,180.258c0-5.632-4.567-10.199-10.199-10.199H342.723L182.547,6.032c-1.912-1.958-4.53-3.066-7.268-3.074
	c-0.01,0-0.019,0-0.029,0c-2.726,0-5.339,1.091-7.256,3.032l-67.391,68.228V39.609c0-5.632-4.567-10.199-10.199-10.199
	s-10.199,4.567-10.199,10.199V94.87L2.943,173.091c-0.006,0.006-0.006,0.011-0.011,0.017C1.12,174.949,0,177.471,0,180.258v318.585
	c0,5.632,4.567,10.199,10.199,10.199h491.602c5.632,0,10.199-4.567,10.199-10.199V180.258z M491.602,259.907H348.626v-69.45h142.976
	V259.907z M175.209,27.713l139.003,142.345H34.609L175.209,27.713z M328.228,488.644H245.12V322.07
	c0-5.632-4.567-10.199-10.199-10.199H113.706c-5.632,0-10.199,4.567-10.199,10.199v166.573H20.398V190.457h307.829V488.644z
	 M123.905,488.644V332.27h100.817v156.374H123.905z M491.602,488.644H348.626V280.306h142.976V488.644z"/>
</svg>